<svg width="18" height="21" viewBox="0 0 18 21" fill="none" xmlns="http://www.w3.org/2000/svg">
<path d="M10.9286 12.4688H7.07143C3.16607 12.4688 0 15.7008 0 19.6875C0 20.4122 0.575759 21 1.28571 21H16.7143C17.4242 21 18 20.4122 18 19.6875C18 15.7008 14.8339 12.4688 10.9286 12.4688Z" fill="black"/>
<path d="M1.96838 19.0312C2.28579 16.4432 4.45182 14.4375 7.07146 14.4375H10.9286C13.5466 14.4375 15.7139 16.4452 16.0313 19.0312H1.96838Z" fill="white"/>
<path d="M9.00003 10.5C11.8403 10.5 14.1429 8.14939 14.1429 5.25C14.1429 2.35061 11.8403 0 9.00003 0C6.15981 0 3.85718 2.35061 3.85718 5.25C3.85718 8.1498 6.15941 10.5 9.00003 10.5ZM9.00003 1.96875C10.7723 1.96875 12.2143 3.4408 12.2143 5.25C12.2143 7.0592 10.7723 8.53125 9.00003 8.53125C7.22776 8.53125 5.78575 7.05879 5.78575 5.25C5.78575 3.4408 7.22816 1.96875 9.00003 1.96875Z" fill="black"/>
</svg>
