<svg width="21" height="21" viewBox="0 0 21 21" fill="none" xmlns="http://www.w3.org/2000/svg">
<path d="M16.2797 14.9246L20.3842 19.0282L19.0282 20.3843L14.9246 16.2797C13.3977 17.5037 11.4985 18.1695 9.54163 18.1667C4.78063 18.1667 0.916626 14.3027 0.916626 9.54167C0.916626 4.78067 4.78063 0.916672 9.54163 0.916672C14.3026 0.916672 18.1666 4.78067 18.1666 9.54167C18.1694 11.4986 17.5037 13.3978 16.2797 14.9246ZM14.3572 14.2135C15.5735 12.9628 16.2527 11.2862 16.25 9.54167C16.25 5.83484 13.2475 2.83334 9.54163 2.83334C5.83479 2.83334 2.83329 5.83484 2.83329 9.54167C2.83329 13.2475 5.83479 16.25 9.54163 16.25C11.2862 16.2528 12.9628 15.5735 14.2135 14.3573L14.3572 14.2135Z" fill="black"/>
</svg>
