<svg width="22" height="23" viewBox="0 0 22 23" fill="none" xmlns="http://www.w3.org/2000/svg">
<path d="M3.64552 9.43001C3.6824 8.94969 3.89096 8.50152 4.22969 8.17475C4.56842 7.84797 5.01245 7.66657 5.47336 7.66667H16.5265C16.9874 7.66657 17.4315 7.84797 17.7702 8.17475C18.1089 8.50152 18.3175 8.94969 18.3544 9.43001L19.0904 19.0133C19.1107 19.2771 19.0785 19.5423 18.9959 19.7924C18.9132 20.0425 18.782 20.272 18.6104 20.4664C18.4388 20.6609 18.2305 20.8161 17.9987 20.9222C17.7669 21.0284 17.5166 21.0833 17.2635 21.0833H4.73636C4.48329 21.0833 4.23297 21.0284 4.00117 20.9222C3.76937 20.8161 3.56111 20.6609 3.3895 20.4664C3.21788 20.272 3.08663 20.0425 3.00401 19.7924C2.9214 19.5423 2.88919 19.2771 2.90944 19.0133L3.64552 9.43001V9.43001Z" stroke="black" stroke-width="2" stroke-linecap="round" stroke-linejoin="round"/>
<path d="M14.6666 10.5417V5.75001C14.6666 4.73334 14.2803 3.75832 13.5926 3.03943C12.905 2.32054 11.9724 1.91667 10.9999 1.91667C10.0275 1.91667 9.09483 2.32054 8.40719 3.03943C7.71956 3.75832 7.33325 4.73334 7.33325 5.75001V10.5417" stroke="black" stroke-width="2" stroke-linecap="round" stroke-linejoin="round"/>
</svg>
